<svg xmlns="http://www.w3.org/2000/svg" xmlns:svg="http://www.w3.org/2000/svg" id="svg2" width="657.101" height="687.679" version="1.1" viewBox="0 0 657.101 687.679" xml:space="preserve"><metadata id="metadata8"/><g id="g10" transform="matrix(1.3333333,0,0,-1.3333333,-1071.4517,1968.5988)"><g id="g12" transform="scale(0.1)"><g style="fill:#f4591e;fill-opacity:1" id="g14" transform="scale(1.28834)"><path id="path16" style="fill:#f4591e;fill-opacity:1;fill-rule:nonzero;stroke:none" d="M 16300,0 H 0 V 16300 H 16300 V 0"/></g><path id="path62" style="fill:#fff;fill-opacity:1;fill-rule:nonzero;stroke:none" d="m 12749,13985.1 c -590.7,804.9 -2249,779.3 -2249,779.3 0,0 -1658.35,25.6 -2248.98,-779.3 -769.17,-1048.3 693.64,-3583.3 1720.72,-4378.2 l 17.52,813 c 34.14,227.6 -523.63,558.2 -523.63,558.2 67.81,145.4 111.82,291.9 138.35,471.9 H 9480 v -79.5 c 0,-42.2 -17.92,-80.5 -60.15,-80.5 h -30.98 c -42.23,0 -88.87,38.3 -88.87,80.5 v 256.6 c 0,42.2 46.64,72.9 88.87,72.9 h 30.98 c 42.23,0 60.15,-30.7 60.15,-72.9 v -87.1 h 135.75 c 20.31,160 25.07,340 20,490 H 9480 v -77.4 c 0,-42.2 -17.92,-72.6 -60.15,-72.6 h -30.98 c -42.23,0 -88.87,30.4 -88.87,72.6 v 256.5 c 0,42.2 46.64,70.9 88.87,70.9 h 30.98 c 42.23,0 60.15,-28.7 60.15,-70.9 v -89.1 h 152.29 c -9.1,170 -28.91,360 -51.83,490 H 9480 v -75.3 c 0,-42.3 -23.68,-74.7 -65.91,-74.7 h -25.22 c -42.23,0 -88.87,32.4 -88.87,74.7 v 256.5 c 0,42.2 46.64,78.8 88.87,78.8 h 25.22 c 42.23,0 65.91,-36.6 65.91,-78.8 v -81.2 h 86.97 c -47.57,280 -101.65,471 -101.65,471 284.5,295.9 666.48,441.6 1046.38,441.6 379.8,0 761.8,-146.8 1046.3,-442.7 0,0 -54.1,-189.9 -101.7,-469.9 h 63.7 v 81.2 c 0,42.2 47,78.8 89.2,78.8 h 25.2 c 42.3,0 65.6,-36.6 65.6,-78.8 v -256.5 c 0,-42.3 -23.3,-74.7 -65.6,-74.7 h -25.2 c -42.2,0 -89.2,32.4 -89.2,74.7 v 75.3 h -77.2 c -22.9,-130 -42.7,-320 -51.8,-490 h 129 v 89.1 c 0,42.2 41.2,70.9 83.4,70.9 h 31 c 42.3,0 65.6,-28.7 65.6,-70.9 v -256.5 c 0,-42.2 -23.3,-72.6 -65.6,-72.6 h -31 c -42.2,0 -83.4,30.4 -83.4,72.6 v 77.4 h -132.5 c -5,-150 -0.3,-330 20,-490 h 112.5 v 87.1 c 0,42.2 41.2,72.9 83.4,72.9 h 31 c 42.3,0 65.6,-30.7 65.6,-72.9 v -256.6 c 0,-42.2 -23.3,-80.5 -65.6,-80.5 h -31 c -42.2,0 -83.4,38.3 -83.4,80.5 v 79.5 h -100.7 c 26.5,-180 70.6,-328.7 138.4,-474.1 0,0 -557.8,-330.1 -523.7,-557.7 l 17.2,-794.2 c 1025.7,814.4 2461.3,3320.5 1697.8,4361.1"/></g></g></svg>