<svg xmlns="http://www.w3.org/2000/svg" xmlns:svg="http://www.w3.org/2000/svg" id="Capa_1" width="459.023" height="504.257" x="0" y="0" version="1.1" viewBox="0 0 459.023 504.257" xml:space="preserve"><metadata id="metadata43"/><g id="g6" style="fill:#fff" transform="translate(-22.616685)"><g id="g4" style="fill:#fff"><path id="path2" d="m 279.617,11.388 c -15.184,-15.184 -39.798,-15.184 -54.982,0 L 31.359,204.664 c -15.184,15.184 -10.086,27.491 11.389,27.491 h 14.56 v 259.862 c 0,6.763 5.478,12.24 12.24,12.24 H 196.03 V 369.616 c 0,-6.763 5.483,-12.239 12.24,-12.239 h 87.718 c 6.756,0 12.239,5.477 12.239,12.239 V 504.257 H 434.71 c 6.763,0 12.24,-5.478 12.24,-12.24 V 232.155 h 14.56 c 21.469,0 26.573,-12.308 11.389,-27.491 z" style="fill:#fff"/></g></g></svg>