<svg xmlns="http://www.w3.org/2000/svg" xmlns:svg="http://www.w3.org/2000/svg" id="svg8" width="24" height="24" version="1.1" viewBox="0 0 24 24"><metadata id="metadata14"/><path id="path2" d="M 17.503418,0 H 6.496582 C 2.9143067,0 0,2.9143067 0,6.496582 V 17.503601 C 0,21.085693 2.9143067,24 6.496582,24 H 17.503601 C 21.085694,24 24,21.085693 24,17.503601 V 6.496582 C 24,2.9143067 21.085694,0 17.503418,0 Z m 5.0896,17.503601 c 0,2.806274 -2.283142,5.089416 -5.0896,5.089416 H 6.496582 c -2.8064575,0 -5.0895996,-2.283142 -5.0895996,-5.089416 V 6.496582 c 0,-2.8064575 2.2831421,-5.0895996 5.0895996,-5.0895996 h 11.007019 c 2.806274,0 5.089416,2.2831421 5.089416,5.0895996 z m 0,0" style="fill:#fff;fill-opacity:1;stroke-width:.046875"/><path id="path4" d="M 12,5.4376835 C 8.38147,5.4376835 5.437683,8.38147 5.437683,12 c 0,3.61853 2.943787,6.562317 6.562317,6.562317 3.61853,0 6.562317,-2.943787 6.562317,-6.562317 C 18.562317,8.38147 15.61853,5.4376835 12,5.4376835 Z M 12,17.155335 C 9.1574705,17.155334 6.8446655,14.842712 6.8446655,12 6.8446655,9.1574705 9.1574705,6.8446655 12,6.8446655 c 2.842713,0 5.155335,2.312805 5.155335,5.1553345 0,2.842713 -2.312622,5.155335 -5.155335,5.155335 z m 0,0" style="fill:#fff;fill-opacity:1;stroke-width:.046875"/><path id="path6" d="m 18.719238,3.1071167 c -1.069336,0 -1.939087,0.8699341 -1.939087,1.9390868 0,1.069336 0.869751,1.93927 1.939087,1.93927 1.069336,0 1.93927,-0.869934 1.93927,-1.93927 0,-1.0693358 -0.869934,-1.9390868 -1.93927,-1.9390868 z m 0,2.4711918 c -0.293335,0 -0.532104,-0.23877 -0.532104,-0.532105 0,-0.2935177 0.238769,-0.5321044 0.532104,-0.5321044 0.293518,0 0.532288,0.2385867 0.532288,0.5321044 0,0.293335 -0.23877,0.532105 -0.532288,0.532105 z m 0,0" style="fill:#fff;fill-opacity:1;stroke-width:.046875"/></svg>