<svg xmlns="http://www.w3.org/2000/svg" xmlns:svg="http://www.w3.org/2000/svg" id="Capa_1" width="21.85" height="21.854" x="0" y="0" version="1.1" viewBox="0 0 21.85 21.854" xml:space="preserve"><metadata id="metadata49"/><g id="g12" style="fill:#fff" transform="translate(-0.00186759)"><g id="g10" style="fill:#fff"><path id="path2" d="M 12.915,16.32 C 11.615,15.635 10.16,14.605 8.705,13.152 7.249,11.695 6.218,10.238 5.534,8.936 L 6.661,5.91 2.862,0 1.61,1.254 1.611,1.257 C 1.603,1.266 1.593,1.271 1.583,1.282 -1.575,4.439 0.126,10.903 5.54,16.317 c 5.414,5.413 11.877,7.113 15.036,3.957 0.009,-0.01 0.016,-0.02 0.024,-0.029 l 1.252,-1.254 -5.908,-3.799 z" style="fill:#fff"/><path id="path4" d="m 20.101,11.375 h 1.75 C 21.851,5.104 16.749,0 10.477,0 v 1.75 c 5.307,0 9.624,4.319 9.624,9.625 z" style="fill:#fff"/><path id="path6" d="m 16.601,11.375 h 1.75 C 18.351,7.032 14.82,3.5 10.476,3.5 v 1.75 c 3.377,0 6.125,2.748 6.125,6.125 z" style="fill:#fff"/><path id="path8" d="m 13.101,11.375 h 1.75 C 14.851,8.962 12.888,7 10.477,7 v 1.75 c 1.448,0 2.624,1.178 2.624,2.625 z" style="fill:#fff"/></g></g></svg>