<svg xmlns="http://www.w3.org/2000/svg" xmlns:svg="http://www.w3.org/2000/svg" id="Capa_1" width="27.324" height="27.322" x="0" y="0" version="1.1" viewBox="0 0 27.324 27.322" xml:space="preserve"><metadata id="metadata186"/><g id="g149" style="fill:#fff" transform="translate(-8.750831e-5,-10e-4)"><g id="g147" style="fill:#fff"><path id="path143" d="M 21.588,10.376 27.324,4.64 22.683,0.001 16.949,5.736 c 0.283,0.995 0.874,2.018 1.748,2.892 0.873,0.873 1.896,1.463 2.891,1.748 z M 24.919,5.65 24.107,6.462 22.833,5.186 23.645,4.374 Z M 21.674,2.405 22.949,3.68 22.137,4.492 20.863,3.216 Z" style="fill:#fff"/><path id="path145" d="M 18.229,9.094 C 16.111,6.974 15.506,4.113 16.69,2.378 14.324,1.763 12.029,2.148 10.525,3.651 9.44,4.737 8.945,6.24 8.982,7.883 6.333,7.419 3.782,8.004 2.033,9.752 c -3.3,3.302 -2.498,9.455 1.793,13.745 4.291,4.292 10.445,5.093 13.745,1.793 1.748,-1.748 2.334,-4.299 1.87,-6.949 1.644,0.037 3.146,-0.457 4.231,-1.544 C 25.175,15.294 25.56,13 24.944,10.632 23.21,11.816 20.35,11.214 18.229,9.094 Z m -7.979,11.71 -3.729,-3.729 0.699,-0.699 3.729,3.729 z m 1.321,-1.323 -3.729,-3.729 1.864,-1.864 3.73,3.729 z M 15.729,15.325 12,11.595 13.865,9.73 l 3.729,3.73 z" style="fill:#fff"/></g></g></svg>